inDegrees=yes
name=ik_S50_A07_T01
DataType=double
version=3
OpenSimVersion=4.3-2021-08-27-4bc7ad9
endheader
time	pelvis_tilt	pelvis_list	pelvis_rotation	pelvis_tx	pelvis_ty	pelvis_tz	hip_flexion_r	hip_adduction_r	hip_rotation_r	knee_angle_r	knee_angle_r_beta	ankle_angle_r	subtalar_angle_r	mtp_angle_r	hip_flexion_l	hip_adduction_l	hip_rotation_l	knee_angle_l	knee_angle_l_beta	ankle_angle_l	subtalar_angle_l	mtp_angle_l	lumbar_extension	lumbar_bending	lumbar_rotation	arm_flex_r	arm_add_r	arm_rot_r	elbow_flex_r	pro_sup_r	wrist_flex_r	wrist_dev_r	arm_flex_l	arm_add_l	arm_rot_l	elbow_flex_l	pro_sup_l	wrist_flex_l	wrist_dev_l
20.21999999999966	-6.05985774129713	-2.522600370751249	27.72200054587942	0	0.9399999999999999	0	43.96841689108102	-10.04592721368281	-10.08372518241545	55.54609800438655	0.9694622968119969	0	0	0	43.96841689108102	-10.04592721368281	-10.08372518241545	55.54609800438655	0.9694622968119969	0	0	0	-4.865492673529942	-2.330034483224895	6.441296832213445	46.16890385127184	-16.53415932866817	5.750778900361845	84.69003934773528	68.11254085050264	0	0	15.50903279539904	-8.425326255559874	-7.319141857091367	62.25042543966144	123.4061615507626	0	0
20.23999999999966	-6.049404940587382	-2.516933571206196	27.72571865649146	0	0.9399999999999999	0	43.97132769501139	-10.04567866293797	-10.08332336842384	55.54499781486293	0.9694430948824139	-5.70857850044864e-35	0	0	43.97132769501139	-10.04567866293797	-10.08332336842384	55.54499781486293	0.9694430948824139	-5.70857850044864e-35	0	0	-4.85680177601542	-2.324310232595877	6.433635697250861	46.13526360685773	-16.44467297007212	5.67803000305396	84.62286150884364	68.11326534734351	0	0	15.46839449538712	-8.412414706264586	-7.329203841458679	62.25873242580493	123.386891908456	0	0
20.25999999999966	-6.051612576242452	-2.517895528882074	27.71698073542065	0	0.9399999999999999	0	43.97497908198588	-10.0452487968467	-10.08274877530601	55.54365326883418	0.9694196281272675	0	0	0	43.97497908198588	-10.0452487968467	-10.08274877530601	55.54365326883418	0.9694196281272675	0	0	0	-4.862925149631342	-2.318431032243632	6.434873426655304	46.13422798419918	-16.44045860631625	5.564240915879046	84.57968330464948	68.17090945839855	0	0	15.47543093602603	-8.405304372087636	-7.361409129630663	62.30234500639445	123.3070801912263	0	0
20.27999999999966	-6.033516728300257	-2.5180991900684	27.69952018517626	0	0.9399999999999999	0	43.97551113759261	-10.04528165683931	-10.08272777370461	55.54341944509024	0.9694155471330664	0	0	0	43.97551113759261	-10.04528165683931	-10.08272777370461	55.54341944509024	0.9694155471330664	0	0	0	-4.846916865600752	-2.328084126837075	6.452808616060338	46.0924928310443	-16.37944715664128	5.424515932694512	84.39931059534102	68.40533363819256	0	0	15.43954117927117	-8.409394178310848	-7.358215644926389	62.2674268087008	123.4285035712085	0	0
20.29999999999966	-6.03011623297575	-2.513734409497097	27.67223788339852	0	0.9399999999999999	0	43.97914965311251	-10.04483009201953	-10.08213963566753	55.54209004039711	0.9693923446440799	0	0	0	43.97914965311251	-10.04483009201953	-10.08213963566753	55.54209004039711	0.9693923446440799	0	0	0	-4.845451599972107	-2.32001329625189	6.451242563540963	46.07899787738273	-16.3096261325947	5.405639240155384	84.14040510792378	68.75600705560294	0	0	15.44556627988376	-8.401071126957751	-7.369791503213695	62.26379231089349	123.4127821632809	0	0
20.31999999999966	-6.015540904439495	-2.512901032148841	27.66580486988895	0	0.9399999999999999	0	43.9819523268833	-10.04445036179145	-10.0816658330469	55.54107767904799	0.9693746756053178	0	0	0	43.9819523268833	-10.04445036179145	-10.0816658330469	55.54107767904799	0.9693746756053178	0	0	0	-4.835026074819848	-2.321270431736165	6.446239453547417	46.02397775834096	-16.31269633318524	5.463334096632003	84.1025585553525	68.89885985189278	0	0	15.42893046183489	-8.410037625559314	-7.345170406041911	62.28531792048617	123.3853655380529	0	0
20.33999999999966	-5.999205713740026	-2.516023881741316	27.64349120460489	0	0.9399999999999999	0	43.98671944801578	-10.04383658476362	-10.08087948143194	55.53934474675198	0.9693444302310382	0	0	0	43.98671944801578	-10.04383658476362	-10.08087948143194	55.53934474675198	0.9693444302310382	0	0	0	-4.825746342378852	-2.327025641567386	6.471467515796619	45.99151992996193	-16.22178707271375	5.438199186671143	83.79452367577984	69.32674420390821	0	0	15.43229921493526	-8.42537514582868	-7.304715758172393	62.2645521473941	123.3755863696708	0	0
20.35999999999965	-5.983346405598237	-2.521228110941695	27.6720186991062	0	0.9399999999999999	0	43.98679328278047	-10.04382573925488	-10.08086652318537	55.53931774219605	0.9693439589126243	0	0	0	43.98679328278047	-10.04382573925488	-10.08086652318537	55.53931774219605	0.9693439589126243	0	0	0	-4.814455618565375	-2.338041135689085	6.462137334866441	45.92424516564881	-16.21964101795921	5.567737930754532	83.78782728694512	69.34115778058008	0	0	15.44088843925287	-8.439519548207144	-7.267724481106521	62.26419484106707	123.3782619279287	0	0
20.37999999999965	-5.978873117177031	-2.508687352929254	27.69337941691176	0	0.9399999999999999	0	43.98704637565915	-10.04378761922705	-10.080821361044	55.53922731913474	0.9693423807324847	0	0	0	43.98704637565915	-10.04378761922705	-10.080821361044	55.53922731913474	0.9693423807324847	0	0	0	-4.806338782198983	-2.324718435479252	6.425182023157755	45.84036397180462	-16.2203318678992	5.869659111781362	83.74539503094334	69.39711321981942	0	0	15.42515360483062	-8.436935181509382	-7.309830336835885	62.24767690290061	123.3515557006465	0	0
20.39999999999965	-5.97188610983496	-2.514510557109393	27.70260994754234	0	0.9399999999999999	0	43.98785739498902	-10.04364163658007	-10.08066205113411	55.53894685786754	0.9693374857599476	0	0	0	43.98785739498902	-10.04364163658007	-10.08066205113411	55.53894685786754	0.9693374857599476	0	0	0	-4.803733719241146	-2.331623354922371	6.421848937820378	45.80959470680532	-16.22606650953751	5.885804923133121	83.74662457297951	69.40000604349983	0	0	15.42376816583336	-8.447831143555209	-7.316847520732296	62.25474893944146	123.3491015049188	0	0
20.41999999999965	-5.945101971034713	-2.505728630401678	27.69111318314335	0	0.9399999999999999	0	43.99146646028	-10.04323411625514	-10.08010366448329	55.53761393018572	0.969314221783209	0	0	0	43.99146646028	-10.04323411625514	-10.08010366448329	55.53761393018572	0.969314221783209	0	0	0	-4.778508715610914	-2.333350095839249	6.445997687457655	45.7231163776327	-16.22003196185516	5.820935346810246	83.49889773491643	69.89266663590683	0	0	15.36245298857871	-8.429455161070043	-7.302373643388382	62.25168659437441	123.3744038290849	0	0
20.43999999999965	-5.943078216860521	-2.502814845893603	27.67924172285344	0	0.9399999999999999	0	43.99297643339663	-10.04304515785583	-10.07985911819497	55.53706187039948	0.9693045865222711	0	0	0	43.99297643339663	-10.04304515785583	-10.07985911819497	55.53706187039948	0.9693045865222711	0	0	0	-4.776769003589181	-2.329624566444655	6.448632319844121	45.69927430894933	-16.27688271021674	5.770586022932709	83.48626521289135	69.90810222085145	0	0	15.36189411404981	-8.442287841076517	-7.320238243717581	62.26287307712761	123.346818173015	0	0
20.45999999999965	-5.931782361680565	-2.492018809123974	27.68036899281751	0	0.9399999999999999	0	43.99457272138461	-10.04287159177457	-10.07961784002733	55.53646798490739	0.9692942212650544	0	0	0	43.99457272138461	-10.04287159177457	-10.07961784002733	55.53646798490739	0.9692942212650544	0	0	0	-4.762179603539342	-2.325902774288456	6.477627448359387	45.609280118623	-16.37274852467084	5.648701625374205	83.50769842947581	70.10514512847361	0	0	15.34726438762504	-8.410440544306397	-7.293151357679296	62.23585796686888	123.3921252866049	0	0
20.47999999999965	-5.932300285365156	-2.499856539117425	27.66995494918699	0	0.9399999999999999	0	43.99726195322988	-10.04253252663947	-10.07918031498919	55.5354861974892	0.9692770858420523	0	0	0	43.99726195322988	-10.04253252663947	-10.07918031498919	55.5354861974892	0.9692770858420523	0	0	0	-4.768928780666649	-2.328434197192706	6.477772750119596	45.5855813440428	-16.42754158008253	5.584888190971736	83.51723559395722	70.16695022676976	0	0	15.34781465284649	-8.434826711641795	-7.311843044798427	62.26362487052911	123.3318879545812	0	0
